<svg width="20" height="26" viewBox="0 0 20 26" fill="none" xmlns="http://www.w3.org/2000/svg">
<g filter="url(#filter0_d_351_1534)">
<path d="M10 1C6.13 1 3 4.13 3 8C3 13.25 10 21 10 21C10 21 17 13.25 17 8C17 4.13 13.87 1 10 1ZM10 10.5C8.62 10.5 7.5 9.38 7.5 8C7.5 6.62 8.62 5.5 10 5.5C11.38 5.5 12.5 6.62 12.5 8C12.5 9.38 11.38 10.5 10 10.5Z" fill="#000814"/>
<path d="M10 1C6.13 1 3 4.13 3 8C3 13.25 10 21 10 21C10 21 17 13.25 17 8C17 4.13 13.87 1 10 1ZM10 10.5C8.62 10.5 7.5 9.38 7.5 8C7.5 6.62 8.62 5.5 10 5.5C11.38 5.5 12.5 6.62 12.5 8C12.5 9.38 11.38 10.5 10 10.5Z" stroke="white" stroke-width="0.6"/>
</g>
<defs>
<filter id="filter0_d_351_1534" x="0.699951" y="0.699951" width="18.6001" height="24.7476" filterUnits="userSpaceOnUse" color-interpolation-filters="sRGB">
<feFlood flood-opacity="0" result="BackgroundImageFix"/>
<feColorMatrix in="SourceAlpha" type="matrix" values="0 0 0 0 0 0 0 0 0 0 0 0 0 0 0 0 0 0 127 0" result="hardAlpha"/>
<feOffset dy="2"/>
<feGaussianBlur stdDeviation="1"/>
<feComposite in2="hardAlpha" operator="out"/>
<feColorMatrix type="matrix" values="0 0 0 0 0 0 0 0 0 0 0 0 0 0 0 0 0 0 0.1 0"/>
<feBlend mode="normal" in2="BackgroundImageFix" result="effect1_dropShadow_351_1534"/>
<feBlend mode="normal" in="SourceGraphic" in2="effect1_dropShadow_351_1534" result="shape"/>
</filter>
</defs>
</svg>
