<svg width="32" height="32" viewBox="0 0 32 32" fill="none" xmlns="http://www.w3.org/2000/svg">
<rect width="32" height="32" rx="16" fill="#28B463"/>
<g clip-path="url(#clip0_345_1542)">
<g filter="url(#filter0_d_345_1542)">
<path d="M16 6C11.8 6 8 9.22 8 14.2C8 17.38 10.45 21.12 15.34 25.43C15.72 25.76 16.29 25.76 16.67 25.43C21.55 21.12 24 17.38 24 14.2C24 9.22 20.2 6 16 6ZM16 16C14.9 16 14 15.1 14 14C14 12.9 14.9 12 16 12C17.1 12 18 12.9 18 14C18 15.1 17.1 16 16 16Z" fill="white"/>
</g>
</g>
<defs>
<filter id="filter0_d_345_1542" x="8" y="6" width="17" height="20.6775" filterUnits="userSpaceOnUse" color-interpolation-filters="sRGB">
<feFlood flood-opacity="0" result="BackgroundImageFix"/>
<feColorMatrix in="SourceAlpha" type="matrix" values="0 0 0 0 0 0 0 0 0 0 0 0 0 0 0 0 0 0 127 0" result="hardAlpha"/>
<feOffset dx="1" dy="1"/>
<feComposite in2="hardAlpha" operator="out"/>
<feColorMatrix type="matrix" values="0 0 0 0 0 0 0 0 0 0 0 0 0 0 0 0 0 0 0.4 0"/>
<feBlend mode="normal" in2="BackgroundImageFix" result="effect1_dropShadow_345_1542"/>
<feBlend mode="normal" in="SourceGraphic" in2="effect1_dropShadow_345_1542" result="shape"/>
</filter>
<clipPath id="clip0_345_1542">
<rect width="24" height="24" fill="white" transform="translate(4 4)"/>
</clipPath>
</defs>
</svg>
