<svg width="20" height="26" viewBox="0 0 20 26" fill="none" xmlns="http://www.w3.org/2000/svg">
<g filter="url(#filter0_d_352_1535)">
<path d="M9 2C5.13 2 2 5.13 2 9C2 14.25 9 22 9 22C9 22 16 14.25 16 9C16 5.13 12.87 2 9 2ZM9 11.5C7.62 11.5 6.5 10.38 6.5 9C6.5 7.62 7.62 6.5 9 6.5C10.38 6.5 11.5 7.62 11.5 9C11.5 10.38 10.38 11.5 9 11.5Z" fill="#ff0000"/>
<path d="M9 2C5.13 2 2 5.13 2 9C2 14.25 9 22 9 22C9 22 16 14.25 16 9C16 5.13 12.87 2 9 2ZM9 11.5C7.62 11.5 6.5 10.38 6.5 9C6.5 7.62 7.62 6.5 9 6.5C10.38 6.5 11.5 7.62 11.5 9C11.5 10.38 10.38 11.5 9 11.5Z" stroke="white" stroke-width="0.6"/>
</g>
<defs>
<filter id="filter0_d_352_1535" x="0.699951" y="0.699951" width="18.6001" height="24.7476" filterUnits="userSpaceOnUse" color-interpolation-filters="sRGB">
<feFlood flood-opacity="0" result="BackgroundImageFix"/>
<feColorMatrix in="SourceAlpha" type="matrix" values="0 0 0 0 0 0 0 0 0 0 0 0 0 0 0 0 0 0 127 0" result="hardAlpha"/>
<feOffset dx="1" dy="1"/>
<feGaussianBlur stdDeviation="1"/>
<feComposite in2="hardAlpha" operator="out"/>
<feColorMatrix type="matrix" values="0 0 0 0 0 0 0 0 0 0 0 0 0 0 0 0 0 0 0.5 0"/>
<feBlend mode="normal" in2="BackgroundImageFix" result="effect1_dropShadow_352_1535"/>
<feBlend mode="normal" in="SourceGraphic" in2="effect1_dropShadow_352_1535" result="shape"/>
</filter>
</defs>
</svg>
