<svg xmlns="http://www.w3.org/2000/svg" version="1.1" xmlns:xlink="http://www.w3.org/1999/xlink" width="512" height="512" x="0" y="0" viewBox="0 0 511.987 511.987" style="enable-background:new 0 0 512 512" xml:space="preserve"><g><path d="M51.855 179.298c1.926 0 3.879-.098 5.841-.32 13.776-1.553 26.114-8.37 34.76-19.217 8.646-10.838 12.551-24.392 10.998-38.169a51.816 51.816 0 0 0-57.377-45.74C17.655 79.056-2.868 104.798.328 133.229c2.973 26.265 25.12 46.069 51.527 46.069zm-2.112-70.87a17.924 17.924 0 0 1 2.175-.124c9.72 0 17.877 7.296 18.978 16.963a19.009 19.009 0 0 1-4.057 14.06c-3.187 3.994-7.731 6.515-12.8 7.074-10.643 1.278-19.963-6.453-21.135-16.839-1.18-10.482 6.374-19.953 16.839-21.134zM345.336 121.574a50.16 50.16 0 0 0 5.841-.328c28.431-3.213 48.945-28.955 45.74-57.359-3.169-28.191-28.44-49.033-57.377-45.758-28.422 3.204-48.936 28.955-45.74 57.377 2.956 26.265 25.111 46.068 51.536 46.068zm-2.113-70.878a17.944 17.944 0 0 1 2.175-.133c9.729 0 17.877 7.305 18.951 16.989 1.189 10.465-6.373 19.945-16.839 21.126-10.545 1.314-19.972-6.444-21.135-16.847-1.179-10.474 6.374-19.954 16.848-21.135zM511.653 377.446c-3.187-28.183-28.68-48.944-57.368-45.749-13.767 1.553-26.106 8.37-34.751 19.217-8.646 10.838-12.56 24.384-10.998 38.151 2.956 26.274 25.111 46.077 51.528 46.077a53.92 53.92 0 0 0 5.841-.32c13.767-1.553 26.106-8.37 34.751-19.209 8.645-10.846 12.551-24.391 10.997-38.167zm-36.606 17.726c-3.187 3.994-7.731 6.515-12.791 7.075-10.616 1.296-19.972-6.453-21.144-16.856-.577-5.06.87-10.048 4.048-14.042 3.187-3.994 7.74-6.515 12.809-7.083.737-.08 1.465-.124 2.184-.124 9.711 0 17.851 7.296 18.942 16.981.577 5.066-.87 10.063-4.048 14.049zM49.468 390.734c-28.422 3.204-48.936 28.955-45.74 57.377 2.965 26.274 25.111 46.086 51.51 46.086 1.935 0 3.897-.115 5.858-.328 13.776-1.553 26.114-8.37 34.76-19.217 8.646-10.838 12.551-24.392 10.998-38.169-3.187-28.183-28.218-49.078-57.386-45.749zm20.753 63.484c-3.187 3.994-7.731 6.515-12.809 7.083-10.598 1.101-19.954-6.462-21.126-16.865-1.181-10.474 6.382-19.954 16.839-21.135a17.777 17.777 0 0 1 2.166-.124 19.088 19.088 0 0 1 18.987 16.981 19.019 19.019 0 0 1-4.057 14.06zM125.752 129.279a16.85 16.85 0 0 0 3.178-.311l145.715-28.662c8.876-1.749 14.655-10.368 12.915-19.244-1.749-8.876-10.341-14.637-19.244-12.915L122.6 96.809c-8.876 1.749-14.664 10.368-12.915 19.244 1.545 7.812 8.397 13.226 16.067 13.226zM366.586 127.681c-8.495 3.107-12.871 12.516-9.764 21.019l61.052 166.797c2.423 6.64 8.699 10.758 15.383 10.758 1.873 0 3.764-.32 5.628-1.003 8.504-3.107 12.88-12.516 9.764-21.019l-61.043-166.797c-3.098-8.494-12.543-12.87-21.02-9.755zM382.36 378.023l-254.052 37.059c-8.956 1.314-15.152 9.631-13.847 18.587 1.189 8.149 8.193 14.025 16.191 14.025.79 0 1.58-.062 2.388-.169l254.052-37.059c8.956-1.314 15.161-9.631 13.856-18.587-1.315-8.948-9.65-15.072-18.588-13.856zM52.734 189.204h-.186c-9.045.098-16.306 7.501-16.208 16.555l1.713 158.533c.107 8.992 7.421 16.208 16.386 16.208h.186c9.045-.098 16.306-7.501 16.208-16.555L69.12 205.412c-.106-8.992-7.421-16.208-16.386-16.208z" fill="#ffffff" opacity="1" data-original="#000000"></path></g></svg>